<svg xmlns="http://www.w3.org/2000/svg" viewBox="-0.655 -5.705 128 128" width="128" height="128" fill="none">
  <path d="M39.4979 5.23083C32.634 8.58754 34.0368 16.5536 32.3834 23.668C30.7301 30.7824 27.9745 35.9428 22.0125 37.2455C16.0504 38.5481 4.97819 38.0972 2.47306 48.2677C-0.0320615 58.4382 17.4032 65.6027 13.9963 77.8274C11.9087 85.3182 10.0328 92.3014 11.036 99.3243C12.0393 106.347 16.0882 109.617 20.0655 111.364C30.3364 115.873 39.8326 109.268 46.1507 104.341C52.4687 99.4131 57.4483 95.3112 70.3601 96.3145C83.2719 97.3177 90.2948 106.347 101.331 109.357C112.367 112.367 124.137 103.681 124.219 92.407C124.301 81.1334 114.932 74.5701 115.233 60.4917C115.533 46.4132 119.441 44.2088 119.992 35.1405C120.543 26.0721 117.298 21.4315 113.089 17.6237C108.881 13.816 102.124 12.1448 94.2083 14.5497C86.2923 16.9545 76.4725 21.4636 70.3601 19.7602C64.2478 18.0567 58.937 12.2951 54.7285 8.48736C50.5201 4.67967 46.3618 1.87411 39.4979 5.23083Z" fill="#28CB92"/>
</svg>
