<svg width="298" height="115" viewBox="0 0 298 115" fill="none" xmlns="http://www.w3.org/2000/svg">
<path d="M39.4979 5.23083C32.634 8.58754 34.0368 16.5536 32.3834 23.668C30.7301 30.7824 27.9745 35.9428 22.0125 37.2455C16.0504 38.5481 4.97819 38.0972 2.47306 48.2677C-0.0320615 58.4382 17.4032 65.6027 13.9963 77.8274C11.9087 85.3182 10.0328 92.3014 11.036 99.3243C12.0393 106.347 16.0882 109.617 20.0655 111.364C30.3364 115.873 39.8326 109.268 46.1507 104.341C52.4687 99.4131 57.4483 95.3112 70.3601 96.3145C83.2719 97.3177 90.2948 106.347 101.331 109.357C112.367 112.367 124.137 103.681 124.219 92.407C124.301 81.1334 114.932 74.5701 115.233 60.4917C115.533 46.4132 119.441 44.2088 119.992 35.1405C120.543 26.0721 117.298 21.4315 113.089 17.6237C108.881 13.816 102.124 12.1448 94.2083 14.5497C86.2923 16.9545 76.4725 21.4636 70.3601 19.7602C64.2478 18.0567 58.937 12.2951 54.7285 8.48736C50.5201 4.67967 46.3618 1.87411 39.4979 5.23083Z" fill="#28CB92"/>
<path d="M172.692 44.7726L160.971 67.4302V78.6143H152.722V67.4302L141 44.7726H150.358L156.919 58.9456L163.431 44.7726H172.692Z" fill="#3F3F3F"/>
<path d="M202.595 51.7145V78.6143H194.346V74.9506C193.51 76.1397 192.369 77.1038 190.921 77.843C189.506 78.5501 187.931 78.9036 186.194 78.9036C184.136 78.9036 182.319 78.4536 180.743 77.5538C179.167 76.6218 177.945 75.288 177.077 73.5525C176.209 71.8171 175.775 69.7763 175.775 67.4302V51.7145H183.975V66.3214C183.975 68.1211 184.441 69.5192 185.374 70.5155C186.307 71.5117 187.561 72.0099 189.137 72.0099C190.745 72.0099 192.015 71.5117 192.947 70.5155C193.88 69.5192 194.346 68.1211 194.346 66.3214V51.7145H202.595Z" fill="#3F3F3F"/>
<path d="M255.118 44.7726L246.29 78.6143H236.305L230.902 56.3424L225.307 78.6143H215.322L206.735 44.7726H215.563L220.435 69.4067L226.465 44.7726H235.533L241.322 69.4067L246.242 44.7726H255.118Z" fill="#3F3F3F"/>
<path d="M284.628 64.7305C284.628 65.5019 284.58 66.3053 284.483 67.1409H265.815C265.944 68.8121 266.474 70.0977 267.407 70.9975C268.372 71.8653 269.545 72.2991 270.928 72.2991C272.986 72.2991 274.418 71.4314 275.221 69.6959H284.001C283.551 71.4635 282.731 73.0544 281.541 74.4685C280.383 75.8826 278.92 76.9913 277.151 77.7948C275.382 78.5983 273.405 79 271.218 79C268.581 79 266.233 78.4376 264.175 77.3127C262.117 76.1879 260.509 74.581 259.351 72.492C258.193 70.403 257.615 67.9604 257.615 65.1644C257.615 62.3684 258.177 59.9258 259.303 57.8368C260.461 55.7478 262.069 54.1409 264.127 53.0161C266.185 51.8912 268.549 51.3288 271.218 51.3288C273.823 51.3288 276.138 51.8752 278.164 52.9679C280.19 54.0606 281.766 55.6193 282.891 57.644C284.049 59.6687 284.628 62.0309 284.628 64.7305ZM276.186 62.5612C276.186 61.1471 275.704 60.0223 274.739 59.1867C273.774 58.3511 272.568 57.9333 271.121 57.9333C269.738 57.9333 268.565 58.335 267.6 59.1384C266.667 59.9419 266.088 61.0828 265.863 62.5612H276.186Z" fill="#3F3F3F"/>
<path d="M293.128 48.9184C291.681 48.9184 290.491 48.5006 289.558 47.665C288.658 46.7973 288.208 45.7367 288.208 44.4833C288.208 43.1978 288.658 42.1372 289.558 41.3016C290.491 40.4339 291.681 40 293.128 40C294.543 40 295.701 40.4339 296.601 41.3016C297.534 42.1372 298 43.1978 298 44.4833C298 45.7367 297.534 46.7973 296.601 47.665C295.701 48.5006 294.543 48.9184 293.128 48.9184ZM297.228 51.7145V78.6143H288.979V51.7145H297.228Z" fill="#3F3F3F"/>
</svg>
